<?xml version="1.0" encoding="UTF-8" standalone="no"?>
<!DOCTYPE svg PUBLIC "-//W3C//DTD SVG 1.1//EN" "http://www.w3.org/Graphics/SVG/1.1/DTD/svg11.dtd">
<svg width="100%" height="100%" viewBox="0 0 600 600" version="1.1" xmlns="http://www.w3.org/2000/svg" xmlns:xlink="http://www.w3.org/1999/xlink" xml:space="preserve" xmlns:serif="http://www.serif.com/" style="fill-rule:evenodd;clip-rule:evenodd;stroke-linejoin:round;stroke-miterlimit:2;">
    <g id="g4087" transform="matrix(1.08717,0,0,1.08717,-155.773,-257.032)">
        <path id="rect4002" d="M301.429,312.422L674.113,236.422L674.113,340.351L301.429,416.351L301.429,312.422Z" style="fill:white;fill-rule:nonzero;"/>
        <rect id="rect3964" x="301.429" y="312.342" width="60" height="388.5" style="fill:white;"/>
        <g id="path4005" transform="matrix(0.772741,-0.207055,0.248864,0.928775,273.331,240.338)">
            <path d="M-40,470.362C-40,513.44 -95.964,548.362 -165,548.362C-234.036,548.362 -290,513.44 -290,470.362C-290,427.284 -234.036,392.362 -165,392.362C-95.964,392.362 -40,427.284 -40,470.362Z" style="fill:white;fill-rule:nonzero;"/>
        </g>
        <rect id="rect3964-3" x="614.113" y="248.877" width="60" height="388.5" style="fill:white;"/>
        <g id="path4005-7" transform="matrix(0.772741,-0.207055,0.248864,0.928775,586.016,176.873)">
            <path d="M-40,470.362C-40,513.44 -95.964,548.362 -165,548.362C-234.036,548.362 -290,513.44 -290,470.362C-290,427.284 -234.036,392.362 -165,392.362C-95.964,392.362 -40,427.284 -40,470.362Z" style="fill:white;fill-rule:nonzero;"/>
        </g>
    </g>
</svg>
